
<region>
sample=..\Samples\muted_finger\cithara_e4_muted_finger_rr1.wav
lokey=64
hikey=65
seq_length=4
group=21
tune=9
pitch_keycenter=64

<region>
sample=..\Samples\muted_finger\cithara_e4_muted_finger_rr2.wav
lokey=64
hikey=65
seq_length=4
seq_position=2
group=21
tune=9
pitch_keycenter=64

<region>
sample=..\Samples\muted_finger\cithara_e4_muted_finger_rr3.wav
lokey=64
hikey=65
seq_length=4
seq_position=3
group=21
tune=9
pitch_keycenter=64

<region>
sample=..\Samples\muted_finger\cithara_e4_muted_finger_rr4.wav
lokey=64
hikey=65
seq_length=4
seq_position=4
group=21
tune=9
pitch_keycenter=64

<region>
sample=..\Samples\muted_finger\cithara_gb4_muted_finger_rr1.wav
lokey=66
hikey=67
seq_length=4
group=22
tune=15
pitch_keycenter=66

<region>
sample=..\Samples\muted_finger\cithara_gb4_muted_finger_rr2.wav
lokey=66
hikey=67
seq_length=4
seq_position=2
group=22
tune=15
pitch_keycenter=66

<region>
sample=..\Samples\muted_finger\cithara_gb4_muted_finger_rr3.wav
lokey=66
hikey=67
seq_length=4
seq_position=3
group=22
tune=15
pitch_keycenter=66

<region>
sample=..\Samples\muted_finger\cithara_gb4_muted_finger_rr4.wav
lokey=66
hikey=67
seq_length=4
seq_position=4
group=22
tune=15
pitch_keycenter=66

<region>
sample=..\Samples\muted_finger\cithara_ab4_muted_finger_rr1.wav
lokey=68
hikey=69
seq_length=4
group=23
pitch_keycenter=68

<region>
sample=..\Samples\muted_finger\cithara_ab4_muted_finger_rr2.wav
lokey=68
hikey=69
seq_length=4
seq_position=2
group=23
pitch_keycenter=68

<region>
sample=..\Samples\muted_finger\cithara_ab4_muted_finger_rr3.wav
lokey=68
hikey=69
seq_length=4
seq_position=3
group=23
pitch_keycenter=68

<region>
sample=..\Samples\muted_finger\cithara_ab4_muted_finger_rr4.wav
lokey=68
hikey=69
seq_length=4
seq_position=4
group=23
pitch_keycenter=68

<region>
sample=..\Samples\muted_finger\cithara_b4_muted_finger_rr1.wav
lokey=70
hikey=72
seq_length=4
group=24
tune=10
pitch_keycenter=71

<region>
sample=..\Samples\muted_finger\cithara_b4_muted_finger_rr2.wav
lokey=70
hikey=72
seq_length=4
seq_position=2
group=24
tune=10
pitch_keycenter=71

<region>
sample=..\Samples\muted_finger\cithara_b4_muted_finger_rr3.wav
lokey=70
hikey=72
seq_length=4
seq_position=3
group=24
tune=10
pitch_keycenter=71

<region>
sample=..\Samples\muted_finger\cithara_b4_muted_finger_rr4.wav
lokey=70
hikey=72
seq_length=4
seq_position=4
group=24
tune=10
pitch_keycenter=71

<region>
sample=..\Samples\muted_finger\cithara_db5_muted_finger_rr1.wav
lokey=73
hikey=74
seq_length=4
group=25
tune=22
pitch_keycenter=73

<region>
sample=..\Samples\muted_finger\cithara_db5_muted_finger_rr2.wav
lokey=73
hikey=74
seq_length=4
seq_position=2
group=25
tune=22
pitch_keycenter=73

<region>
sample=..\Samples\muted_finger\cithara_db5_muted_finger_rr3.wav
lokey=73
hikey=74
seq_length=4
seq_position=3
group=25
tune=22
pitch_keycenter=73

<region>
sample=..\Samples\muted_finger\cithara_db5_muted_finger_rr4.wav
lokey=73
hikey=74
seq_length=4
seq_position=4
group=25
tune=22
pitch_keycenter=73

<region>
sample=..\Samples\muted_finger\cithara_eb5_muted_finger_rr1.wav
lokey=75
hikey=76
seq_length=4
group=26
tune=13
pitch_keycenter=75

<region>
sample=..\Samples\muted_finger\cithara_eb5_muted_finger_rr2.wav
lokey=75
hikey=76
seq_length=4
seq_position=2
group=26
tune=13
pitch_keycenter=75

<region>
sample=..\Samples\muted_finger\cithara_eb5_muted_finger_rr3.wav
lokey=75
hikey=76
seq_length=4
seq_position=3
group=26
tune=13
pitch_keycenter=75

<region>
sample=..\Samples\muted_finger\cithara_eb5_muted_finger_rr4.wav
lokey=75
hikey=76
seq_length=4
seq_position=4
group=26
tune=13
pitch_keycenter=75

<region>
sample=..\Samples\muted_finger\cithara_e5_muted_finger_rr1.wav
lokey=76
hikey=77
seq_length=4
group=27
tune=18
pitch_keycenter=76

<region>
sample=..\Samples\muted_finger\cithara_e5_muted_finger_rr2.wav
lokey=76
hikey=77
seq_length=4
seq_position=2
group=27
tune=18
pitch_keycenter=76

<region>
sample=..\Samples\muted_finger\cithara_e5_muted_finger_rr3.wav
lokey=76
hikey=77
seq_length=4
seq_position=3
group=27
tune=18
pitch_keycenter=76

<region>
sample=..\Samples\muted_finger\cithara_e5_muted_finger_rr4.wav
lokey=76
hikey=77
seq_length=4
seq_position=4
group=27
tune=18
pitch_keycenter=76

<region>
sample=..\Samples\muted_finger\cithara_gb5_muted_finger_rr1.wav
lokey=78
hikey=79
seq_length=4
group=28
tune=20
pitch_keycenter=78

<region>
sample=..\Samples\muted_finger\cithara_gb5_muted_finger_rr2.wav
lokey=78
hikey=79
seq_length=4
seq_position=2
group=28
tune=20
pitch_keycenter=78

<region>
sample=..\Samples\muted_finger\cithara_gb5_muted_finger_rr3.wav
lokey=78
hikey=79
seq_length=4
seq_position=3
group=28
tune=20
pitch_keycenter=78

<region>
sample=..\Samples\muted_finger\cithara_gb5_muted_finger_rr4.wav
lokey=78
hikey=79
seq_length=4
seq_position=4
group=28
tune=20
pitch_keycenter=78

<region>
sample=..\Samples\muted_finger\cithara_ab5_muted_finger_rr1.wav
lokey=80
hikey=81
seq_length=4
group=29
tune=16
pitch_keycenter=80

<region>
sample=..\Samples\muted_finger\cithara_ab5_muted_finger_rr2.wav
lokey=80
hikey=81
seq_length=4
seq_position=2
group=29
tune=16
pitch_keycenter=80

<region>
sample=..\Samples\muted_finger\cithara_ab5_muted_finger_rr3.wav
lokey=80
hikey=81
seq_length=4
seq_position=3
group=29
tune=16
pitch_keycenter=80

<region>
sample=..\Samples\muted_finger\cithara_ab5_muted_finger_rr4.wav
lokey=80
hikey=81
seq_length=4
seq_position=4
group=29
tune=16
pitch_keycenter=80

<region>
sample=..\Samples\muted_finger\cithara_b5_muted_finger_rr1.wav
lokey=82
hikey=84
seq_length=4
group=20
tune=17
pitch_keycenter=81

<region>
sample=..\Samples\muted_finger\cithara_b5_muted_finger_rr2.wav
lokey=82
hikey=84
seq_length=4
seq_position=2
group=20
tune=17
pitch_keycenter=81

<region>
sample=..\Samples\muted_finger\cithara_b5_muted_finger_rr3.wav
lokey=82
hikey=84
seq_length=4
seq_position=3
group=20
tune=17
pitch_keycenter=81

<region>
sample=..\Samples\muted_finger\cithara_b5_muted_finger_rr4.wav
lokey=82
hikey=84
seq_length=4
seq_position=4
group=20
tune=17
pitch_keycenter=81
